<?xml version="1.0" encoding="UTF-8"?>
<svg id="Layer_2" xmlns="http://www.w3.org/2000/svg" viewBox="0 0 523.9575 862.6801">
<g id="Components"><g id="_x31_280034b-80e0-4ad0-b76b-1fb3245d19a2_x40_1">
<path d="M519.5703,639.5298l-218.7705,218.77c-5.8398,5.8403-15.3096,5.8403-21.1499,0L4.3799,583.0298c-5.8398-5.8398-5.8398-15.3098,0-21.1499l119.96-119.96c5.8403-5.8401,5.8403-15.3201,0-21.1602L4.3799,300.7998c-5.8398-5.8398-5.8398-15.3101,0-21.1499L279.6401,4.3799c5.8501-5.8398,15.3198-5.8398,21.1597,0l218.7705,218.77c5.8398,5.8398,5.8398,15.3101,0,21.1499l-77.6504,77.6602c-5.8496,5.8398-15.3198,5.8398-21.1597,0l-119.9604-119.96c-5.8398-5.8401-15.3096-5.8401-21.1597,0l-77.6401,77.6499c-5.8501,5.8398-5.8501,15.3101,0,21.1499l55.8101,55.8101-57.8999,57.8999-7.8999,7.9001c-4.9302,4.9299-4.9302,12.9299,0,17.8601l7.8999,7.8999,57.8999,57.8999-5.5801,5.5901-50.23,50.22c-5.8501,5.8401-5.8501,15.3101,0,21.1499l77.6401,77.6499c5.8501,5.8403,15.3198,5.8403,21.1597,0l119.9604-119.9597c5.8398-5.8401,15.3101-5.8401,21.1597,0l77.6504,77.6599c5.8496,5.8401,5.8496,15.3101,0,21.1499Z" style="fill:#252525;"/>
<path d="M399.8799,441.9199l-87.54,87.54-10.5698,10.5698c-5.8398,5.8501-15.3198,5.8501-21.1597.0103l-76.9604-76.9602c-4.0298-4.0398-5.2798-9.8-3.7397-14.9099l57.8999,57.8999,24.0503,24.04c4.9297,4.9302,12.9199,4.9302,17.8496,0l89.8501-89.8398c4.9302-4.9302,4.9302-12.9302,0-17.8601l-89.8501-89.8401c-4.9297-4.9299-12.9199-4.9299-17.8496,0l-24.0503,24.04-57.8999,57.8999c-.4302-1.4099-.6401-2.8599-.6401-4.3198,0-3.8301,1.46-7.6602,4.3799-10.5801l48.5801-48.5801,28.3804-28.3899c5.8398-5.8401,15.3198-5.8401,21.1597,0l10.5698,10.5801,87.54,87.5398c5.8403,5.8401,5.8403,15.3201,0,21.1602Z" style="fill:#252525;"/></g></g></svg>