<?xml version="1.0" encoding="UTF-8"?><svg id="Layer_2" xmlns="http://www.w3.org/2000/svg" viewBox="0 0 1617.9422 194.2321"><g id="Components"><g id="_x39_7f669ac-a34d-44e8-a6be-d87eae156a3f_x40_1"><path d="M161.4889,144.842v49.3901H0V.0014h157.8818v49.3901h-93.5082v22.7527h82.1318v47.1703h-82.1318v25.5275h97.1153Z" style="fill:gold;"/><path d="M378.1949.0014v194.2307h-53.8296l-73.8077-88.2362v88.2362h-63.8187V.0014h53.8296l73.8077,88.2362V.0014h63.8187Z" style="fill:gold;"/><path d="M617.3761.0014l-82.1318,194.2307h-64.3736L388.7388.0014h70.478l46.3379,113.4862L553.0025.0014h64.3736Z" style="fill:#f1f3f5;"/><path d="M745.0088,0h-64.3699l-84.9102,194.23h66.6001l13.04-33.85,18.0299-47.17,18.87-48.84,18.8701,48.84,18.0399,47.17,13.0399,33.85h67.7001L745.0088,0Z" style="fill:#f1f3f5;"/><path d="M1031.9199.0014v194.2307h-53.8296l-73.8077-88.2362v88.2362h-63.8187V.0014h53.8296l73.8077,88.2362V.0014h63.8187Z" style="fill:gold;"/><path d="M1105.7276,50.7789h-56.8818V.0014h179.2477v50.7775h-56.8818v143.4532h-65.484V50.7789Z" style="fill:gold;"/><path d="M1406.5082,144.842v49.3901h-161.4889V.0014h157.8818v49.3901h-93.5082v22.7527h82.1318v47.1703h-82.1318v25.5275h97.1153Z" style="fill:gold;"/><path d="M1514.9999,145.3969h-17.7582v48.8351h-65.4835V.0014h93.5082c54.1071,0,88.5137,28.3022,88.5137,73.2527,0,28.0247-13.3187,49.1126-36.6264,61.0439l40.7884,59.934h-69.923l-33.0192-48.8351ZM1521.1043,50.5014h-23.8626v45.5055h23.8626c18.0357,0,26.6374-8.6016,26.6374-22.7527s-8.6016-22.7527-26.6374-22.7527Z" style="fill:gold;"/></g></g></svg>