<?xml version="1.0" encoding="UTF-8"?><svg id="Layer_2" xmlns="http://www.w3.org/2000/svg" viewBox="0 0 523.96 862.6848"><g id="Components"><g id="_x32_b37531a-2ed1-4cc9-80ce-3d4206810ca0_x40_1"><path d="M519.5801,639.5375l-218.7803,218.7598c-5.8398,5.8501-15.3098,5.8501-21.1499,0L4.3799,583.0375c-5.8398-5.8401-5.8398-15.3101,0-21.1602l119.97-119.96c5.8401-5.8398,5.8401-15.3101,0-21.1499L4.3799,300.8075c-5.8398-5.8501-5.8398-15.3201,0-21.1602L279.6499,4.3876c5.8401-5.8501,15.3101-5.8501,21.1499,0l218.77,218.7598c5.8401,5.8401,5.8401,15.3101,0,21.1602l-77.6499,77.6499c-5.8398,5.8501-15.3101,5.8501-21.1499,0l-119.9702-119.96c-5.8398-5.8401-15.3098-5.8401-21.1499,0l-77.6499,77.6499c-5.8401,5.8401-5.8401,15.3101,0,21.1602l55.8101,55.8101-57.9001,57.8999-7.8999,7.8999c-4.9299,4.9302-4.9299,12.9199,0,17.8501l7.8999,7.8999,57.9001,57.9001-5.5801,5.5798-50.23,50.23c-5.8401,5.8501-5.8401,15.3201,0,21.1602l77.6499,77.6499c5.8401,5.8398,15.3101,5.8398,21.1499,0l119.9702-119.96c5.8398-5.8501,15.3101-5.8501,21.1499,0l77.6602,77.6499c5.8398,5.8501,5.8398,15.3203,0,21.1602Z" style="fill:gold;"/><path d="M399.8899,441.9174l-87.54,87.54-10.5798,10.5801c-5.8401,5.8398-15.3101,5.8398-21.1501,0l-28.3899-28.3901-48.5801-48.5698c-4.04-4.04-5.28-9.8101-3.74-14.9102l81.95,81.9502c4.9302,4.9299,12.9202,4.9299,17.8501,0l89.8501-89.8501c4.9299-4.9302,4.9299-12.9199,0-17.8501l-89.8501-89.8499c-4.9299-4.9299-12.9199-4.9299-17.8501,0l-24.0498,24.05-57.9001,57.8999c-.4299-1.4102-.6399-2.8701-.6399-4.3301,0-3.8198,1.46-7.6499,4.3899-10.5698l48.5701-48.5801,28.3899-28.3901c5.8401-5.8398,15.3101-5.8398,21.1501,0l10.5798,10.5801,87.54,87.54c5.8401,5.8398,5.8401,15.3101,0,21.1499Z" style="fill:gold;"/></g></g></svg>