<?xml version="1.0" encoding="UTF-8"?>
<svg xmlns="http://www.w3.org/2000/svg" viewBox="0 0 1200.8 592.8">
  <defs>
    <style>
      .cls-1 {
        mix-blend-mode: color-burn;
        opacity: .4;
      }

      .cls-2 {
        isolation: isolate;
      }

      .cls-3 {
        fill: gold;
      }

      .cls-4 {
        fill: #00296b;
        stroke: #231f20;
        stroke-miterlimit: 10;
        stroke-width: .8px;
      }
    </style>
  </defs>
  <g class="cls-2">
    <g id="Layer_1" data-name="Layer 1">
      <rect class="cls-4" x=".4" y=".4" width="1200" height="592"/>
      <g class="cls-1">
        <path class="cls-3" d="M613.14-108.86l-342.74,810.53H11.46L-331.28-108.86H-58.44l196.63,481.57c2.24,5.48,7.55,9.07,13.47,9.09h.06c5.89,0,11.21-3.54,13.49-8.98L366.6-108.86h246.54M635.19-123.48h-278.32l-205.14,490.66L-48.62-123.48h-304.71L1.77,716.28h278.32L635.19-123.48h0Z"/>
        <path class="cls-3" d="M1177.45-108.87l354.33,810.53h-260.33l-52.76-136.96-78.01-203.99-81.59-211.16c-2.18-5.63-7.6-9.35-13.64-9.35s-11.46,3.72-13.64,9.35l-81.59,211.16s-.01.03-.02.05l-77.94,203.91-52.77,136.99h-255.57L918.27-108.87h259.18M1187.02-123.49h-278.31l-367.11,839.76h287.95l56.38-146.35,77.95-203.94,81.59-211.16,81.59,211.16,78,203.94,56.38,146.35h292.7L1187.02-123.49h0Z"/>
      </g>
    </g>
  </g>
</svg>