<?xml version="1.0" encoding="UTF-8"?>
<svg id="Layer_2" data-name="Layer 2" xmlns="http://www.w3.org/2000/svg" viewBox="0 0 666.67 666.67">
  <defs>
    <style>
      .cls-1 {
        fill: #f3f3f3;
        fill-rule: evenodd;
      }
    </style>
  </defs>
  <g id="Layer_1-2" data-name="Layer 1">
    <path class="cls-1" d="M666.67,333.33c0,184.09-149.24,333.33-333.33,333.33S0,517.43,0,333.33,149.24,0,333.33,0s333.33,149.24,333.33,333.33ZM467.68,232.32c9.76,9.76,9.76,25.59,0,35.35l-166.67,166.67c-9.76,9.76-25.59,9.76-35.35,0l-66.67-66.67c-9.76-9.76-9.76-25.59,0-35.35,9.76-9.76,25.59-9.76,35.36,0l48.99,48.99,74.49-74.49,74.5-74.49c9.76-9.76,25.59-9.76,35.35,0Z"/>
  </g>
</svg>