<?xml version="1.0" encoding="UTF-8"?>
<svg id="Layer_2" data-name="Layer 2" xmlns="http://www.w3.org/2000/svg" viewBox="0 0 453.18 206.23">
  <defs>
    <style>
      .cls-1 {
        fill: #252525;
      }
    </style>
  </defs>
  <g id="Layer_1-2" data-name="Layer 1">
    <g>
      <path class="cls-1" d="M216.53,18l-71.98,170.23h-48.46L24.1,18h44.31l43.29,106.02c1.84,4.5,6.2,7.44,11.06,7.46.02,0,.03,0,.05,0,4.84,0,9.2-2.91,11.07-7.37l44.37-106.11h38.28M234.64,6h-64.37l-47.45,113.49L76.48,6H6l82.13,194.23h64.37L234.64,6h0Z"/>
      <path class="cls-1" d="M354.42,18l74.42,170.23h-41.12l-10.07-26.14-18.05-47.21-18.87-48.84c-1.79-4.63-6.24-7.68-11.19-7.68s-9.41,3.05-11.19,7.68l-18.89,48.88-18.02,47.14-10.08,26.16h-40.02L305.75,18h48.67M362.27,6h-64.37l-84.91,194.23h66.6l13.04-33.85,18.03-47.17,18.87-48.84,18.87,48.84,18.04,47.17,13.04,33.85h67.7L362.27,6h0Z"/>
    </g>
  </g>
</svg>